<svg width="69" height="93" viewBox="0 0 69 93" fill="none" xmlns="http://www.w3.org/2000/svg">
<path d="M27 1.5H43C43.8284 1.5 44.5 2.17157 44.5 3V19C44.5 19.8284 43.8284 20.5 43 20.5H27C26.1716 20.5 25.5 19.8284 25.5 19V3C25.5 2.17157 26.1716 1.5 27 1.5Z" stroke="currentColor"/>
<path d="M51 1.5H67C67.8284 1.5 68.5 2.17157 68.5 3V19C68.5 19.8284 67.8284 20.5 67 20.5H51C50.1716 20.5 49.5 19.8284 49.5 19V3C49.5 2.17157 50.1716 1.5 51 1.5Z" stroke="currentColor"/>
<path d="M3 25.5H19C19.8284 25.5 20.5 26.1716 20.5 27V43C20.5 43.8284 19.8284 44.5 19 44.5H3C2.17157 44.5 1.5 43.8284 1.5 43V27C1.5 26.1716 2.17157 25.5 3 25.5Z" stroke="currentColor"/>
<path d="M27 25.5H43C43.8284 25.5 44.5 26.1716 44.5 27V43C44.5 43.8284 43.8284 44.5 43 44.5H27C26.1716 44.5 25.5 43.8284 25.5 43V27C25.5 26.1716 26.1716 25.5 27 25.5Z" stroke="currentColor"/>
<path d="M3 49.5H19C19.8284 49.5 20.5 50.1716 20.5 51V67C20.5 67.8284 19.8284 68.5 19 68.5H3C2.17157 68.5 1.5 67.8284 1.5 67V51C1.5 50.1716 2.17157 49.5 3 49.5Z" stroke="currentColor"/>
<path d="M27 49.5H43C43.8284 49.5 44.5 50.1716 44.5 51V67C44.5 67.8284 43.8284 68.5 43 68.5H27C26.1716 68.5 25.5 67.8284 25.5 67V51C25.5 50.1716 26.1716 49.5 27 49.5Z" stroke="currentColor"/>
<path d="M51 49.5H67C67.8284 49.5 68.5 50.1716 68.5 51V67C68.5 67.8284 67.8284 68.5 67 68.5H51C50.1716 68.5 49.5 67.8284 49.5 67V51C49.5 50.1716 50.1716 49.5 51 49.5Z" stroke="currentColor"/>
<path d="M3 73.5H19C19.8284 73.5 20.5 74.1716 20.5 75V91C20.5 91.8284 19.8284 92.5 19 92.5H3C2.17157 92.5 1.5 91.8284 1.5 91V75C1.5 74.1716 2.17157 73.5 3 73.5Z" stroke="currentColor"/>
<path d="M27 73.5H43C43.8284 73.5 44.5 74.1716 44.5 75V91C44.5 91.8284 43.8284 92.5 43 92.5H27C26.1716 92.5 25.5 91.8284 25.5 91V75C25.5 74.1716 26.1716 73.5 27 73.5Z" stroke="currentColor"/>
<path d="M11 0.5C16.799 0.5 21.5 5.20101 21.5 11C21.5 16.799 16.799 21.5 11 21.5C5.20101 21.5 0.5 16.799 0.5 11C0.5 5.20101 5.20101 0.5 11 0.5Z" stroke="currentColor"/>
</svg>
