<svg width="1480" height="1480" viewBox="0 0 1480 1480" fill="none" xmlns="http://www.w3.org/2000/svg">
<rect width="1480" height="1480" rx="740" fill="white"/>
<path fill-rule="evenodd" clip-rule="evenodd" d="M873.933 284.269C867.083 287.739 857.535 293.159 852.714 296.314C833.103 309.145 808.862 332.387 789.984 356.46C786.964 360.31 783.724 364.31 782.783 365.348C781.843 366.387 776.954 372.928 771.919 379.884L762.765 392.533L748.622 390.78C739.873 389.696 727.343 389.015 715.768 388.994C702.059 388.969 696.779 388.626 696.013 387.71C695.438 387.023 691.34 380.385 686.907 372.96C670.953 346.243 652.943 325.821 630.479 308.971C617.042 298.893 599.057 287.643 588.199 282.524C580.609 278.946 581.702 277.934 571.972 297.552C546.222 349.472 541.631 416.128 560.115 469.731C562.299 476.067 564.962 482.967 566.033 485.065C568.456 489.816 568.455 491.267 566.024 500.041C564.948 503.922 563.536 510.779 562.886 515.279C561.585 524.272 561.46 524.531 554.978 531.571C541.498 546.212 526.901 554.033 506.729 557.421C502.239 558.175 502.144 558.854 504.968 569.918C507.335 579.187 513.245 593.688 517.213 599.96L520.06 604.46L516.769 605.743C514.96 606.448 512.667 607.355 511.674 607.757C510.075 608.405 510.517 609.461 515.533 616.974C533.619 644.069 554.335 662.938 589.816 684.632L593.152 686.672L585.316 692.166C561.85 708.618 543.195 727.245 512.543 764.83C495.083 786.24 477.962 815.89 471.131 836.548C466.631 850.157 465.616 856.979 465.675 873.21L465.73 887.96H420.011H374.291L373.635 903.119C372.798 922.458 372.784 1107.8 373.619 1118.52L374.246 1126.58L390.106 1124.73C398.829 1123.72 419.356 1121.16 435.723 1119.05C469.756 1114.65 465.239 1114.08 480.649 1124.73C529.672 1158.61 585.974 1181.73 648.979 1193.84C683.532 1200.48 707.551 1202.36 749.404 1201.68C793.636 1200.97 816.777 1198.01 856.366 1187.98C910.856 1174.18 955.462 1154.06 999.479 1123.43L1013.48 1113.68L1035.48 1116.87C1047.58 1118.63 1066.25 1121.35 1076.98 1122.91C1087.7 1124.48 1098.73 1125.92 1101.48 1126.11L1106.48 1126.46L1106.74 1077.51L1107 1028.56L1103.11 1024.51C1100.96 1022.28 1098.71 1019.48 1098.1 1018.28C1096.85 1015.85 1096.55 991.114 1097.74 989.407C1098.15 988.828 1100.17 987.329 1102.23 986.076L1105.98 983.797L1106.15 963.128C1106.24 951.761 1106.36 930.535 1106.4 915.96L1106.48 889.46L1096.51 889.314C1091.03 889.234 1086.4 888.73 1086.22 888.195C1086.05 887.66 1088.39 881.053 1091.44 873.513C1094.49 865.973 1096.98 859.614 1096.98 859.382C1096.98 859.15 1078.56 858.96 1056.05 858.96C1021.93 858.96 1014.88 859.197 1013.7 860.387C1012.91 861.172 1008.33 868.147 1003.52 875.887L994.781 889.96H959.939C937.148 889.96 924.877 889.604 924.461 888.932C924.112 888.366 924.95 884.878 926.324 881.182C930.441 870.102 945.695 819.085 949.997 802.009C961.548 756.159 959.252 734.021 939.985 705.468C933.529 695.901 919.508 681.823 910.229 675.59C906.242 672.912 902.979 670.368 902.979 669.938C902.979 669.507 905.341 667.583 908.229 665.661C915.29 660.963 931.394 648.619 938.497 642.46C946.038 635.922 958.976 621.168 958.991 619.089C958.997 618.193 956.65 615.364 953.775 612.803L948.548 608.147L956.253 600.303C967.249 589.11 976.9 575.34 979.391 567.291C979.917 565.592 979.565 564.969 977.771 564.418C973.029 562.962 952.247 553.422 946.479 550.053C928.136 539.342 915.162 525.024 905.467 504.794C901.855 497.257 901.324 494.52 902.979 491.96C903.734 490.791 903.952 491.067 903.964 493.21C903.972 494.722 904.339 495.96 904.778 495.96C905.218 495.96 905.397 494.417 905.177 492.53C904.903 490.187 906.036 485.832 908.752 478.78C913.065 467.584 916.959 452.784 919.669 437.292C921.89 424.595 922.166 381.254 920.117 366.96C917.192 346.551 909.518 320.875 900.611 301.695C890.844 280.665 889.44 278.039 887.933 278C887.083 277.978 880.783 280.799 873.933 284.269ZM875.907 334.21C884.729 359.188 887.324 374.519 887.378 401.96C887.402 414.103 886.893 425.721 886.129 430.46C882.65 452.033 876.212 471.056 866.969 487.072C864.103 492.038 861.979 496.958 861.979 498.631C861.979 503.448 876.387 527.275 887.753 541.254C896.303 551.768 911.863 564.95 925.729 573.424C929.167 575.525 931.979 577.478 931.979 577.763C931.979 578.492 918.744 590.619 910.979 597.003C907.404 599.943 902.004 604.724 898.979 607.627C892.58 613.77 892.667 614.361 900.799 620.008C903.61 621.96 906.155 623.803 906.456 624.104C907.966 625.613 871.78 647.404 847.479 659.619C837.029 664.872 828.344 669.296 828.178 669.449C828.013 669.603 830.577 670.204 833.876 670.785C837.176 671.366 841.075 672.47 842.542 673.239C845.004 674.529 844.53 674.634 836.344 674.609C824.885 674.574 818.613 676.096 807.106 681.704C795.808 687.209 785.354 694.806 773.395 706.201C740.27 737.765 714.701 752.083 690.979 752.352C674.296 752.541 664.095 746.912 657.601 733.931C654.505 727.742 650.121 712.485 651.145 711.461C651.359 711.246 653.323 711.49 655.507 712.003C664.865 714.201 677.963 715.069 685.644 714C701.34 711.817 718.865 704.095 737.479 691.158C746.245 685.066 765.202 669.85 764.679 669.326C764.498 669.146 757.243 671.913 748.557 675.475C728.655 683.637 708.375 690.17 695.479 692.575C681.108 695.256 664.572 695.117 655.479 692.239C645.196 688.985 636.555 683.454 630.828 676.46C628.126 673.16 624.532 669.04 622.841 667.304L619.766 664.148L624.499 662.054C630.465 659.415 631.515 659.44 642.479 662.482C659.755 667.275 684.422 665.481 705.191 657.92C715.301 654.24 737.119 643.28 745.398 637.724C753.882 632.029 767.333 620.647 771.063 616.006C775.466 610.526 778.763 609.372 786.348 610.657C789.72 611.229 792.575 611.622 792.692 611.532C792.809 611.441 792.037 609.939 790.975 608.194C786.384 600.645 775.172 596.121 764 597.311C757.792 597.972 745.979 601.695 745.979 602.991C745.979 603.456 748.117 604.147 750.729 604.526C753.341 604.905 755.824 605.413 756.245 605.656C757.731 606.512 753.395 612.259 746.113 619.084C729.293 634.848 704.568 648.082 684.479 652.07C669.078 655.128 645.291 653.138 634.954 647.926C631.94 646.406 621.979 636.937 621.979 635.591C621.979 635.34 625.017 632.972 628.729 630.327C643.19 620.027 646.979 615.094 646.979 606.569C646.979 597.206 639.407 592.96 622.711 592.96H612.8L620.036 585.71C633.611 572.109 645.49 554.913 651.445 540.242C654.766 532.061 658.981 517.422 658.972 514.098L658.966 511.46L657.112 514.271C656.093 515.817 654.674 518.855 653.959 521.021C653.244 523.188 652.324 524.96 651.914 524.96C651.505 524.96 649.73 522.408 647.969 519.289C642.316 509.271 630.704 498.669 619.948 493.704C618.006 492.808 613.559 491.614 610.066 491.051C606.572 490.489 603.521 489.835 603.284 489.598C603.047 489.362 606.454 483.159 610.854 475.814C618.273 463.431 625.981 452.643 635.261 441.654C639.595 436.523 639.989 439.313 631.915 417.96C625.701 401.524 605.369 362.96 602.918 362.96C601.496 362.96 600.148 369.731 598.918 383.05C597.44 399.059 598.84 417.555 603.114 438.46C604.8 446.71 606.247 453.986 606.329 454.63C606.484 455.837 596.968 468.8 595.852 468.902C594.702 469.008 590.806 458.732 588.399 449.245C584.071 432.183 582.682 416.862 583.249 392.46C583.624 376.321 584.327 367.277 585.887 358.51C587.726 348.178 591.305 333.938 592.611 331.766C593.595 330.128 604.299 338.276 614.543 348.46C631.387 365.205 641.589 378.898 659.251 408.46C664.18 416.71 668.353 423.615 668.524 423.804C668.695 423.994 674.399 423.431 681.199 422.554C707.815 419.122 745.402 421.595 770.979 428.46C779.948 430.867 779.737 430.989 787.979 418.703C807.095 390.208 837.326 356.484 860.59 337.701C867.526 332.101 870.222 330.927 871.479 332.96C871.819 333.51 872.59 333.96 873.193 333.96C873.796 333.96 873.5 333.088 872.536 332.023C870.895 330.209 871.095 327.96 872.898 327.96C873.339 327.96 874.693 330.773 875.907 334.21ZM860.055 366.095C848.143 380.212 834.923 400.989 824.191 422.46C815.474 439.901 815.523 438.96 823.339 438.96C828.816 438.96 830.886 438.411 836.548 435.46C840.242 433.535 843.4 431.96 843.567 431.96C843.734 431.96 843.183 434.323 842.343 437.21C840.463 443.665 834.918 454.053 830.375 459.628C828.507 461.921 826.979 463.996 826.979 464.241C826.979 464.485 830.053 466.971 833.811 469.765C837.569 472.559 842.292 476.671 844.308 478.903C846.324 481.134 848.395 482.96 848.909 482.96C850.349 482.96 860.409 461.576 863.848 451.206C867.811 439.253 869.813 428.378 870.916 412.803C872.198 394.725 870.101 365.573 867.138 360.28C866.446 359.044 865.009 360.224 860.055 366.095ZM762.761 485.457C749.456 488.813 732.195 500.049 715.176 516.431C711.16 520.297 707.335 523.581 706.676 523.73C706.018 523.878 703.904 521.982 701.979 519.517C700.054 517.052 698.103 515.019 697.643 514.998C696.346 514.939 697.291 537.678 698.642 539.026C699.282 539.664 701.869 540.419 704.392 540.703C706.915 540.987 708.979 541.596 708.979 542.055C708.979 542.514 707.765 545.043 706.281 547.675C699.136 560.347 698.014 562.58 697.997 564.154C697.981 565.706 698.347 565.685 702.386 563.898C708.907 561.013 717.167 560.478 726.187 562.356C730.426 563.238 736.276 563.952 739.187 563.943C752.68 563.898 769.454 557.636 776.001 550.197C779.831 545.846 780.504 543.929 782.753 530.96L783.534 526.46L788.756 526.158C791.629 525.991 793.979 525.464 793.979 524.986C793.979 522.794 785.096 516.768 779.165 514.936C772.331 512.825 761.637 512.337 756.222 513.89C751.656 515.2 752.19 513.705 757.729 509.671C767.837 502.309 777.05 499.407 787.84 500.187C793.581 500.602 798.067 501.987 808.884 506.683C809.905 507.126 809.768 506.363 808.384 503.889C805.307 498.391 795.45 489.058 790.272 486.74C784.173 484.01 770.941 483.393 762.761 485.457ZM606.634 507.45C609.394 508.27 613.598 510.35 615.977 512.073L620.302 515.207L615.089 517.684C611.464 519.407 609.077 521.425 607.25 524.311C601.128 533.978 605.943 550.405 617.761 560.172L621.043 562.885L613.756 568.675C609.749 571.86 601.727 577.946 595.93 582.199C587.586 588.322 584.932 590.878 583.185 594.473C580.649 599.693 580.276 607.336 582.319 612.242C583.288 614.57 583.495 618.194 583.069 625.34L582.479 635.22L574.862 627.24C561.831 613.588 546.854 590.645 544.629 580.923C544.114 578.675 544.7 578.001 549.763 575.013C562.682 567.389 577.365 553.123 585.98 539.825C589.134 534.955 589.792 532.874 590.82 524.505C592.21 513.197 593.996 508.287 597.185 507.008C600.36 505.733 600.944 505.76 606.634 507.45ZM775.456 525.922C776.441 527.517 773.954 539.472 771.952 542.764C770.24 545.579 760.628 552.96 758.674 552.96C758.217 552.96 758.757 551.677 759.873 550.108C762.942 545.799 764.082 539.233 762.956 532.356C762.425 529.113 761.988 526.38 761.985 526.283C761.943 525.012 774.682 524.671 775.456 525.922ZM622.168 527.482C622.455 527.769 622.212 529.794 621.628 531.982C620.227 537.229 622.047 546.05 625.451 550.512C628.546 554.57 628.571 554.962 625.729 554.953C616.239 554.926 607.074 535.575 613.107 528.305C614.175 527.019 621.078 526.392 622.168 527.482ZM735.131 534.516C734.469 542.836 735.746 547.414 740.112 552.374C743.964 556.749 744.042 556.967 741.814 557.111C731.54 557.774 725.93 554.051 723.918 545.233C722.162 537.54 726.903 529.976 733.486 529.964C735.256 529.96 735.45 530.5 735.131 534.516ZM616.716 601.987C623.074 603.019 628.569 604.703 627.867 605.405C627.653 605.62 625.228 605.369 622.478 604.85C619.729 604.33 612.816 603.877 607.116 603.845C601.416 603.812 597.141 603.419 597.616 602.97C599.776 600.928 607.683 600.521 616.716 601.987ZM601.857 629.159C609.182 633.327 622.298 646.067 621.82 648.55C621.251 651.501 615.084 653.335 610.174 652.012C604.218 650.409 600.405 646.715 597.961 640.182C595.231 632.887 593.904 625.96 595.236 625.96C595.786 625.96 598.765 627.4 601.857 629.159ZM883.76 702.973C890.889 707.733 903.734 720.26 905.212 723.894C907.941 730.6 905.252 757.781 899.873 777.86C896.77 789.44 890.657 804.398 888.887 804.739C888.038 804.903 883.775 802.28 879.415 798.91C875.055 795.541 870.876 792.442 870.129 792.024C868.999 791.392 869.208 787.248 871.373 767.362C874.554 738.146 875.842 722.641 876.203 709.219C876.355 703.586 876.765 698.973 877.115 698.969C877.465 698.964 880.455 700.766 883.76 702.973ZM749.979 767.921C749.979 786.68 749.668 793.134 748.729 793.899C748.042 794.459 744.075 797.596 739.914 800.871C731.651 807.374 727.602 811.684 722.218 819.71C720.281 822.598 718.113 824.96 717.401 824.96C715.618 824.96 685.834 816.933 683.979 815.952C682.694 815.273 682.52 811.5 682.762 789.625L683.044 764.091L691.486 764.06C705.551 764.007 719.399 759.508 737.979 748.953C743.754 745.672 748.816 742.981 749.229 742.974C749.642 742.966 749.979 754.192 749.979 767.921ZM818.479 787.442C831.8 790.002 855.299 798.418 866.979 804.813C875.079 809.247 885.083 816.184 890.307 820.987L895.434 825.701L891.858 831.081C885.998 839.896 867.908 863.798 859.661 873.62C855.432 878.658 847.865 886.645 842.846 891.369C831.337 902.204 828.11 903.348 804.316 905.034C785.369 906.376 732.126 905.746 714.979 903.976C699.961 902.427 680.966 898.39 671.979 894.839C661.869 890.844 646.628 879.631 620.479 856.952C602.437 841.303 592.488 834.16 583.518 830.412C578.891 828.479 579.474 827.638 588.633 823.027C600.75 816.927 616.064 817.076 645.479 823.581C666.813 828.298 678.023 831.55 706.479 841.273C736.972 851.694 748.535 856.07 760.261 861.627C770.548 866.502 772.84 867.219 778.314 867.27C786.817 867.35 792.745 864.415 798.27 857.389C801.449 853.347 803.458 851.774 806.479 850.961C816.875 848.164 824.969 841.603 829.014 832.692C834.169 821.336 828.336 809.044 814.325 801.739C804.985 796.869 798.637 795.66 784.735 796.101L773.09 796.471L775.285 794.116C777.907 791.303 785.516 787.296 790.725 785.986C795.2 784.861 808.74 785.571 818.479 787.442ZM526.259 806.949C527.025 808.043 531.888 813.514 537.066 819.107C542.243 824.7 546.479 829.717 546.479 830.257C546.479 830.797 544.042 832.164 541.063 833.296L535.646 835.354L546.945 837.625C575.157 843.294 583.203 847.592 605.053 868.67C613.552 876.869 621.768 883.678 630.137 889.46L634.479 892.46L630.479 892.719C628.279 892.861 612.304 894.376 594.979 896.086C569.621 898.589 561.042 899.073 550.979 898.567C531.009 897.564 512.517 894.189 502.72 889.761C496.504 886.951 495.575 883.764 496.226 867.46C496.785 853.433 499.298 844.676 506.7 830.96C511.773 821.559 522.875 804.96 524.09 804.96C524.517 804.96 525.493 805.855 526.259 806.949ZM798.257 809.065C808.546 813.11 812.979 818.287 812.979 826.257C812.979 831.068 810.99 834.197 807.162 835.406C805.241 836.012 803.843 835.181 798.971 830.534C788.769 820.803 776.854 816.553 761.412 817.137C752.952 817.457 752.89 817.442 755.163 815.605C758.79 812.675 767.023 808.731 772.479 807.309C779.103 805.582 791.557 806.43 798.257 809.065ZM770.674 828.45C778.576 830.314 786.115 834.941 788.518 839.402C790.287 842.688 790.298 843.067 788.722 846.373C786.387 851.27 781.969 853.349 775.675 852.514C769.958 851.756 765.368 849.592 755.479 842.995C751.629 840.426 746.54 837.488 744.17 836.464L739.861 834.603L743.102 832.032C744.885 830.617 747.724 828.932 749.411 828.286C753.698 826.646 763.337 826.72 770.674 828.45ZM1049.2 894.71C1047.08 897.873 1043.66 903.498 1041.61 907.21L1037.88 913.96L1032.18 913.993C1029.04 914.011 1023.34 914.43 1019.49 914.925C1015.65 915.42 1012.32 915.633 1012.08 915.398C1011.85 915.164 1012.36 914.182 1013.22 913.216C1014.08 912.25 1017.59 907.185 1021.01 901.96C1030.24 887.88 1028.52 888.96 1041.67 888.96H1053.05L1049.2 894.71ZM1069.46 929.21C1069.82 933.197 1069.98 940.06 1069.8 944.46L1069.48 952.46L1045.23 952.728L1020.98 952.996V966.478V979.96H1039.48H1057.98V994.96V1009.96H1039.48H1020.98V1025.39V1040.82L1026.23 1041.39C1029.12 1041.71 1039.99 1042.41 1050.39 1042.95C1060.79 1043.5 1069.41 1044.06 1069.55 1044.2C1069.69 1044.34 1069.96 1052.45 1070.14 1062.21L1070.48 1079.96L1066.98 1079.94C1065.05 1079.93 1054.44 1078.61 1043.39 1077.02C1032.35 1075.42 1014.35 1073.34 1003.39 1072.39C992.441 1071.44 983.132 1070.36 982.708 1069.99C982.285 1069.62 983.307 1066.75 984.981 1063.62L988.024 1057.91L987.752 997.686L987.479 937.46L984.564 931.708C982.961 928.544 981.986 925.619 982.396 925.208C983.292 924.31 1027.6 922.331 1051.64 922.114L1068.81 921.96L1069.46 929.21ZM471.236 924.926C489.779 925.683 491.329 925.897 496.466 928.41C499.476 929.882 503.294 932.732 504.951 934.742C510.337 941.276 510.934 944.926 511.12 972.46C511.265 994.015 511.054 998.011 509.588 1001.46C506.79 1008.04 502.95 1012.84 497.822 1016.16C495.158 1017.89 492.979 1019.56 492.979 1019.89C492.979 1020.22 495.058 1025.2 497.598 1030.97C505.386 1048.66 512.154 1065.32 512.678 1068.11L513.176 1070.76L503.328 1071.46C497.911 1071.84 490.387 1072.53 486.607 1072.98C482.827 1073.43 479.227 1073.6 478.607 1073.35C477.987 1073.1 475.32 1066.28 472.682 1058.2C470.043 1050.12 466.242 1038.88 464.235 1033.23L460.585 1022.96H454.282H447.979L448.005 1042.71L448.03 1062.46L451.505 1067.91C457.19 1076.84 458.167 1076.29 431.91 1078.88C419.223 1080.13 408.644 1080.96 408.402 1080.72C408.16 1080.48 409.541 1076.86 411.471 1072.68L414.979 1065.09V1000.87V936.652L411.479 930.394C409.554 926.951 407.979 923.841 407.979 923.481C407.979 922.822 434.578 923.43 471.236 924.926ZM964.967 936.71C964.956 947.507 964.745 948.825 962.37 952.96C960.949 955.435 958.41 959.935 956.729 962.96C943.721 986.366 938.113 996.149 926.846 1015.09C919.769 1026.99 913.979 1037.27 913.979 1037.93C913.979 1038.85 918.615 1039.05 933.229 1038.75C951.279 1038.38 952.907 1038.19 959.348 1035.66C963.126 1034.17 966.726 1032.96 967.348 1032.96C968.159 1032.96 968.384 1037.97 968.144 1050.71C967.959 1060.47 967.625 1068.64 967.402 1068.87C967.178 1069.09 957.879 1068.54 946.737 1067.63C935.595 1066.73 918.379 1065.52 908.479 1064.95C898.579 1064.38 886.767 1063.66 882.229 1063.35L873.979 1062.78V1051.33V1039.88L899.479 998.431C913.504 975.636 924.979 956.482 924.979 955.866C924.979 955.069 920.584 954.876 909.729 955.197C892.885 955.696 889.453 956.547 880.596 962.426C877.668 964.37 874.981 965.96 874.625 965.96C874.27 965.96 873.979 957.458 873.979 947.066V928.173L890.229 927.498C899.167 927.127 918.179 926.474 932.479 926.047C946.779 925.62 959.941 925.201 961.729 925.116L964.979 924.96L964.967 936.71ZM590.889 926.961L600.479 926.962L606.183 952.211C609.32 966.098 614.403 988.485 617.477 1001.96C620.552 1015.44 623.985 1031.18 625.107 1036.96C626.3 1043.1 628.567 1050.53 630.571 1054.87C632.454 1058.94 633.83 1062.44 633.627 1062.65C632.975 1063.3 592.851 1065.17 592.257 1064.57C591.942 1064.26 592.659 1061.03 593.849 1057.41C595.762 1051.58 595.887 1050.09 594.928 1044.59C594.331 1041.16 593.484 1037.78 593.045 1037.07C592.416 1036.05 588.937 1035.93 576.656 1036.5L561.066 1037.22L560.101 1042.34C559.57 1045.16 558.905 1048.83 558.624 1050.5C558.301 1052.43 558.997 1055.71 560.525 1059.47C561.851 1062.73 562.608 1065.71 562.207 1066.08C561.807 1066.45 553.829 1067.27 544.479 1067.89C535.129 1068.52 525.944 1069.31 524.068 1069.64C521.021 1070.18 520.734 1070.04 521.383 1068.35C525.431 1057.81 534.931 1017.58 547.55 957.56C551.019 941.058 551.212 939.299 550.02 935.06C549.309 932.53 548.493 929.374 548.206 928.047L547.684 925.634L564.491 926.297C573.735 926.662 585.614 926.96 590.889 926.961ZM712.393 929.526C722.825 930.147 730.089 933.043 734.869 938.487C739.822 944.129 740.452 948.068 740.466 973.46C740.479 996.178 740.447 996.528 737.868 1002.03C734.94 1008.27 729.662 1013.89 724.158 1016.63C721.025 1018.19 717.402 1018.51 699.729 1018.78L678.979 1019.11L678.951 1033.78C678.923 1048.45 678.924 1048.46 682.188 1054.64C683.984 1058.04 685.234 1061.02 684.966 1061.26C684.698 1061.49 674.633 1062 662.598 1062.38C637.621 1063.17 639.798 1064.3 644.554 1052.96L647.279 1046.46L646.598 993.669L645.917 940.878L643.448 935.295C642.09 932.224 640.979 929.291 640.979 928.778C640.979 927.859 693.666 928.411 712.393 929.526ZM838.532 931.63C844.278 934.706 848.818 939.589 851.856 945.96L854.479 951.46L854.77 993.812C855.097 1041.36 854.891 1043.2 848.408 1050.77C840.778 1059.69 833.93 1061.25 804.479 1060.8C783.071 1060.47 782.326 1060.39 776.783 1057.79C768.965 1054.13 762.767 1047.68 760.033 1040.38C757.864 1034.58 757.833 1033.79 758.216 993.469C758.567 956.527 758.79 951.966 760.466 947.476C763.137 940.322 770.098 933.879 778.113 931.142C784.073 929.107 786.073 928.985 809.479 929.214C832.963 929.445 834.725 929.592 838.532 931.63ZM447.729 952.532C446.667 953.61 446.823 993.165 447.896 994.86C448.61 995.988 450.786 996.125 459.131 995.563C471.637 994.722 476.612 993.514 477.962 990.992C479.176 988.723 479.243 967.276 478.055 961.13C477.032 955.838 476.277 955.031 471.35 953.963C465.482 952.692 448.58 951.668 447.729 952.532ZM679.559 955.713C679.24 956.032 678.979 964.768 678.979 975.127V993.96H690.756C707.74 993.96 706.979 994.875 706.979 974.438C706.979 959.822 706.788 957.932 705.229 957.129C703.22 956.094 680.436 954.837 679.559 955.713ZM792.634 957.789C791.159 959.418 790.979 963.489 790.979 995.134C790.979 1037.45 789.867 1034.14 804.306 1034.78C815.22 1035.25 820.381 1033.66 822.034 1029.31C822.706 1027.55 822.971 1014.67 822.778 993.176L822.479 959.781L820.118 957.871C818.094 956.232 816.084 955.96 806.023 955.96C795.925 955.96 794.058 956.215 792.634 957.789ZM575.45 968.21C575.063 970.547 572.998 980.548 570.863 990.433C568.727 1000.32 566.979 1008.98 566.979 1009.68C566.979 1010.63 569.383 1010.96 576.229 1010.95C581.316 1010.94 586.027 1010.58 586.696 1010.16C587.62 1009.57 587.107 1005.91 584.56 994.922C582.717 986.968 580.416 976.748 579.449 972.21C578.481 967.672 577.344 963.96 576.922 963.96C576.5 963.96 575.838 965.873 575.45 968.21ZM722.321 1132.46L722.365 1159.46L714.672 1159.75L706.979 1160.04V1132.46V1104.88L714.629 1105.17L722.278 1105.46L722.321 1132.46ZM766.979 1111.46V1117.96H755.979H744.979V1121.42V1124.88L753.729 1125.17L762.479 1125.46L762.777 1131.71L763.074 1137.96H754.559H746.045L745.762 1149.21L745.479 1160.46L740.482 1160.78C737.733 1160.95 733.954 1160.8 732.084 1160.45L728.683 1159.81L729.314 1132.64C729.661 1117.69 729.952 1105.35 729.962 1105.21C729.971 1105.07 738.304 1104.96 748.479 1104.96H766.979V1111.46Z" fill="black"/>
</svg>
