<svg width="200" height="150" viewBox="0 0 63 49" fill="none" xmlns="http://www.w3.org/2000/svg">
<path d="M63 47.1H0V48.1H63V47.1Z" fill="currentColor"/>
<path d="M31.5 7.8C33.4 7.8 35 6.2 35 4.3C35 2.4 33.4 0.799999 31.5 0.799999C29.6 0.799999 28 2.4 28 4.3C28 6.2 29.6 7.8 31.5 7.8ZM31.5 1.8C32.9 1.8 34 2.9 34 4.3C34 5.7 32.9 6.8 31.5 6.8C30.1 6.8 29 5.7 29 4.3C29 2.9 30.1 1.8 31.5 1.8Z" fill="currentColor"/>
<path d="M51.4 8.8H27.5C26.8 8.8 26.2 9.1 25.7 9.5L14.5 20.8C13.6 21.7 13.5 23.1 14.2 24.1C14.6 24.7 15.3 25.1 16 25.1C16.1 25.1 16.1 25.1 16.2 25.1C16.9 25.1 17.5 24.8 18 24.4L27 15.4V23.4V24.4L21.4 30H12.5C11.2 30 10.1 30.9 9.9 32.1C9.8 32.8 10 33.6 10.5 34.1C11 34.6 11.7 35 12.4 35H22.4C23.1 35 23.7 34.7 24.2 34.3L30.5 28H31.8L34.8 35.2V44.6C34.8 45.9 35.7 47 36.9 47.2C37 47.2 37.2 47.2 37.3 47.2C37.9 47.2 38.5 47 38.9 46.6C39.5 46.1 39.8 45.4 39.8 44.7V34.7C39.8 34.4 39.7 34 39.6 33.7L38.2 30.3L36 24.8V23.3V13.8H51.5C52.2 13.8 52.9 13.5 53.4 12.9C53.9 12.3 54.1 11.6 54 10.9C53.8 9.7 52.7 8.8 51.4 8.8ZM38.8 44.6C38.8 45 38.6 45.5 38.3 45.7C38 46 37.5 46.1 37.1 46C36.4 45.9 35.9 45.2 35.9 44.4V34.9C35.9 34.8 35.9 34.8 35.9 34.7L32.7 27.1C32.6 26.9 32.4 26.8 32.2 26.8H30.4C30.3 26.8 30.1 26.9 30 26.9L23.5 33.4C23.2 33.7 22.8 33.8 22.4 33.8H12.4C12 33.8 11.5 33.6 11.3 33.3C11 33 10.9 32.5 11 32.1C11.1 31.4 11.8 30.9 12.6 30.9H21.7C21.8 30.9 22 30.8 22.1 30.8L28 24.9C28.1 24.8 28.1 24.7 28.1 24.5V23.8H35.1V24.9C35.1 25 35.1 25 35.1 25.1L38.8 34C38.9 34.2 38.9 34.4 38.9 34.6V44.6H38.8ZM52.6 12.3C52.3 12.6 51.9 12.8 51.5 12.8H35.5C35.2 12.8 35 13 35 13.3V22.8H28V14.1C28 13.9 27.9 13.7 27.7 13.6C27.5 13.5 27.3 13.6 27.2 13.7L17.3 23.6C17 23.9 16.6 24.1 16.1 24C15.7 24 15.3 23.7 15 23.4C14.6 22.8 14.7 22 15.2 21.4L26.4 10.2C26.7 9.9 27.1 9.8 27.5 9.8H51.4C52.2 9.8 52.9 10.3 53 11C53 11.5 52.9 11.9 52.6 12.3Z" fill="currentColor"/>
<path d="M22.4 40.1C20.5 40.1 18.9 41.7 18.9 43.6C18.9 45.5 20.5 47.1 22.4 47.1C24.3 47.1 25.9 45.5 25.9 43.6C25.9 41.7 24.3 40.1 22.4 40.1ZM22.4 46.1C21 46.1 19.9 45 19.9 43.6C19.9 42.2 21 41.1 22.4 41.1C23.8 41.1 24.9 42.2 24.9 43.6C24.9 45 23.8 46.1 22.4 46.1Z" fill="currentColor"/>
</svg>
