<svg width="734" height="924" viewBox="0 0 734 924" fill="none" xmlns="http://www.w3.org/2000/svg">
<path fill-rule="evenodd" clip-rule="evenodd" d="M500.933 6.26912C494.083 9.73913 484.535 15.1591 479.714 18.3141C460.103 31.1451 435.862 54.3871 416.984 78.4601C413.964 82.3101 410.724 86.3101 409.783 87.3481C408.843 88.3871 403.954 94.9281 398.919 101.884L389.765 114.533L375.622 112.78C366.873 111.696 354.343 111.015 342.768 110.994C329.059 110.969 323.779 110.626 323.013 109.71C322.438 109.023 318.34 102.385 313.907 94.9601C297.953 68.2431 279.943 47.8211 257.479 30.9711C244.042 20.8931 226.057 9.64313 215.199 4.52413C207.609 0.946126 208.702 -0.0658703 198.972 19.5521C173.222 71.4721 168.631 138.128 187.115 191.731C189.299 198.067 191.962 204.967 193.033 207.065C195.456 211.816 195.455 213.267 193.024 222.041C191.948 225.922 190.536 232.779 189.886 237.279C188.585 246.272 188.46 246.531 181.978 253.571C168.498 268.212 153.901 276.033 133.729 279.421C129.239 280.175 129.144 280.854 131.968 291.918C134.335 301.187 140.245 315.688 144.213 321.96L147.06 326.46L143.769 327.743C141.96 328.448 139.667 329.355 138.674 329.757C137.075 330.405 137.517 331.461 142.533 338.974C160.619 366.069 181.335 384.938 216.816 406.632L220.152 408.672L212.316 414.166C188.85 430.618 170.195 449.245 139.543 486.83C122.083 508.24 104.962 537.89 98.131 558.548C93.631 572.157 92.616 578.979 92.675 595.21L92.7301 609.96H47.011H1.29104L0.635054 625.119C-0.201946 644.458 -0.215953 829.8 0.619047 840.52L1.24605 848.581L17.106 846.734C25.829 845.718 46.3561 843.159 62.7231 841.046C96.7561 836.653 92.239 836.082 107.649 846.732C156.672 880.612 212.974 903.727 275.979 915.838C310.532 922.481 334.551 924.357 376.404 923.683C420.636 922.971 443.777 920.006 483.366 909.98C537.856 896.18 582.462 876.059 626.479 845.426L640.479 835.682L662.479 838.872C674.579 840.627 693.254 843.345 703.979 844.912C714.704 846.479 725.729 847.919 728.479 848.111L733.479 848.46L733.739 799.508L733.998 750.555L730.105 746.508C727.964 744.281 725.71 741.477 725.096 740.276C723.854 737.848 723.553 713.114 724.744 711.407C725.148 710.828 727.167 709.329 729.229 708.076L732.979 705.797L733.15 685.128C733.244 673.761 733.357 652.535 733.4 637.96L733.479 611.46L723.514 611.314C718.033 611.234 713.402 610.73 713.224 610.195C713.046 609.66 715.393 603.053 718.439 595.513C721.486 587.973 723.979 581.614 723.979 581.382C723.979 581.15 705.561 580.96 683.05 580.96C648.934 580.96 641.884 581.197 640.695 582.387C639.91 583.172 635.333 590.147 630.524 597.887L621.781 611.96H586.939C564.148 611.96 551.877 611.604 551.461 610.932C551.112 610.366 551.95 606.878 553.324 603.182C557.441 592.102 572.695 541.085 576.997 524.009C588.548 478.159 586.252 456.021 566.985 427.468C560.529 417.901 546.508 403.823 537.229 397.59C533.242 394.912 529.979 392.368 529.979 391.938C529.979 391.507 532.341 389.583 535.229 387.661C542.29 382.963 558.394 370.619 565.497 364.46C573.038 357.922 585.976 343.168 585.991 341.089C585.997 340.193 583.65 337.364 580.775 334.803L575.548 330.147L583.253 322.303C594.249 311.11 603.9 297.34 606.391 289.291C606.917 287.592 606.565 286.969 604.771 286.418C600.029 284.962 579.247 275.422 573.479 272.053C555.136 261.342 542.162 247.024 532.467 226.794C528.855 219.257 528.324 216.52 529.979 213.96C530.734 212.791 530.952 213.067 530.964 215.21C530.972 216.722 531.339 217.96 531.778 217.96C532.218 217.96 532.397 216.417 532.177 214.53C531.903 212.187 533.036 207.832 535.752 200.78C540.065 189.584 543.959 174.784 546.669 159.292C548.89 146.595 549.166 103.254 547.117 88.9601C544.192 68.5511 536.518 42.8751 527.611 23.6951C517.844 2.66513 516.44 0.0391278 514.933 0.00012781C514.083 -0.0218722 507.783 2.79912 500.933 6.26912ZM502.907 56.2101C511.729 81.1881 514.324 96.5191 514.378 123.96C514.402 136.103 513.893 147.721 513.129 152.46C509.65 174.033 503.212 193.056 493.969 209.072C491.103 214.038 488.979 218.958 488.979 220.631C488.979 225.448 503.387 249.275 514.753 263.254C523.303 273.768 538.863 286.95 552.729 295.424C556.167 297.525 558.979 299.478 558.979 299.763C558.979 300.492 545.744 312.619 537.979 319.003C534.404 321.943 529.004 326.724 525.979 329.627C519.58 335.77 519.667 336.361 527.799 342.008C530.61 343.96 533.155 345.803 533.456 346.104C534.966 347.613 498.78 369.404 474.479 381.619C464.029 386.872 455.344 391.296 455.178 391.449C455.013 391.603 457.577 392.204 460.876 392.785C464.176 393.366 468.075 394.47 469.542 395.239C472.004 396.529 471.53 396.634 463.344 396.609C451.885 396.574 445.613 398.096 434.106 403.704C422.808 409.209 412.354 416.806 400.395 428.201C367.27 459.765 341.701 474.083 317.979 474.352C301.296 474.541 291.095 468.912 284.601 455.931C281.505 449.742 277.121 434.485 278.145 433.461C278.359 433.246 280.323 433.49 282.507 434.003C291.865 436.201 304.963 437.069 312.644 436C328.34 433.817 345.865 426.095 364.479 413.158C373.245 407.066 392.202 391.85 391.679 391.326C391.498 391.146 384.243 393.913 375.557 397.475C355.655 405.637 335.375 412.17 322.479 414.575C308.108 417.256 291.572 417.117 282.479 414.239C272.196 410.985 263.555 405.454 257.828 398.46C255.126 395.16 251.532 391.04 249.841 389.304L246.766 386.148L251.499 384.054C257.465 381.415 258.515 381.44 269.479 384.482C286.755 389.275 311.422 387.481 332.191 379.92C342.301 376.24 364.119 365.28 372.398 359.724C380.882 354.029 394.333 342.647 398.063 338.006C402.466 332.526 405.763 331.372 413.348 332.657C416.72 333.229 419.575 333.622 419.692 333.532C419.809 333.441 419.037 331.939 417.975 330.194C413.384 322.645 402.172 318.121 391 319.311C384.792 319.972 372.979 323.695 372.979 324.991C372.979 325.456 375.117 326.147 377.729 326.526C380.341 326.905 382.824 327.413 383.245 327.656C384.731 328.512 380.395 334.259 373.113 341.084C356.293 356.848 331.568 370.082 311.479 374.07C296.078 377.128 272.291 375.138 261.954 369.926C258.94 368.406 248.979 358.937 248.979 357.591C248.979 357.34 252.017 354.972 255.729 352.327C270.19 342.027 273.979 337.094 273.979 328.569C273.979 319.206 266.407 314.96 249.711 314.96H239.8L247.036 307.71C260.611 294.109 272.49 276.913 278.445 262.242C281.766 254.061 285.981 239.422 285.972 236.098L285.966 233.46L284.112 236.271C283.093 237.817 281.674 240.855 280.959 243.021C280.244 245.188 279.324 246.96 278.914 246.96C278.505 246.96 276.73 244.408 274.969 241.289C269.316 231.271 257.704 220.669 246.948 215.704C245.006 214.808 240.559 213.614 237.066 213.051C233.572 212.489 230.521 211.835 230.284 211.598C230.047 211.362 233.454 205.159 237.854 197.814C245.273 185.431 252.981 174.643 262.261 163.654C266.595 158.523 266.989 161.313 258.915 139.96C252.701 123.524 232.369 84.9601 229.918 84.9601C228.496 84.9601 227.148 91.7311 225.918 105.05C224.44 121.059 225.84 139.555 230.114 160.46C231.8 168.71 233.247 175.986 233.329 176.63C233.484 177.837 223.968 190.8 222.852 190.902C221.702 191.008 217.806 180.732 215.399 171.245C211.071 154.183 209.682 138.862 210.249 114.46C210.624 98.3211 211.327 89.2771 212.887 80.5101C214.726 70.1781 218.305 55.9381 219.611 53.7661C220.595 52.1281 231.299 60.2761 241.543 70.4601C258.387 87.2051 268.589 100.898 286.251 130.46C291.18 138.71 295.353 145.615 295.524 145.804C295.695 145.994 301.399 145.431 308.199 144.554C334.815 141.122 372.402 143.595 397.979 150.46C406.948 152.867 406.737 152.989 414.979 140.703C434.095 112.208 464.326 78.4841 487.59 59.7011C494.526 54.1011 497.222 52.9271 498.479 54.9601C498.819 55.5101 499.59 55.9601 500.193 55.9601C500.796 55.9601 500.5 55.0881 499.536 54.0231C497.895 52.2091 498.095 49.9601 499.898 49.9601C500.339 49.9601 501.693 52.7731 502.907 56.2101ZM487.055 88.0951C475.143 102.212 461.923 122.989 451.191 144.46C442.474 161.901 442.523 160.96 450.339 160.96C455.816 160.96 457.886 160.411 463.548 157.46C467.242 155.535 470.4 153.96 470.567 153.96C470.734 153.96 470.183 156.323 469.343 159.21C467.463 165.665 461.918 176.053 457.375 181.628C455.507 183.921 453.979 185.996 453.979 186.241C453.979 186.485 457.053 188.971 460.811 191.765C464.569 194.559 469.292 198.671 471.308 200.903C473.324 203.134 475.395 204.96 475.909 204.96C477.349 204.96 487.409 183.576 490.848 173.206C494.811 161.253 496.813 150.378 497.916 134.803C499.198 116.725 497.101 87.5731 494.138 82.2801C493.446 81.0441 492.009 82.2241 487.055 88.0951ZM389.761 207.457C376.456 210.813 359.195 222.049 342.176 238.431C338.16 242.297 334.335 245.581 333.676 245.73C333.018 245.878 330.904 243.982 328.979 241.517C327.054 239.052 325.103 237.019 324.643 236.998C323.346 236.939 324.291 259.678 325.642 261.026C326.282 261.664 328.869 262.419 331.392 262.703C333.915 262.987 335.979 263.596 335.979 264.055C335.979 264.514 334.765 267.043 333.281 269.675C326.136 282.347 325.014 284.58 324.997 286.154C324.981 287.706 325.347 287.685 329.386 285.898C335.907 283.013 344.167 282.478 353.187 284.356C357.426 285.238 363.276 285.952 366.187 285.943C379.68 285.898 396.454 279.636 403.001 272.197C406.831 267.846 407.504 265.929 409.753 252.96L410.534 248.46L415.756 248.158C418.629 247.991 420.979 247.464 420.979 246.986C420.979 244.794 412.096 238.768 406.165 236.936C399.331 234.825 388.637 234.337 383.222 235.89C378.656 237.2 379.19 235.705 384.729 231.671C394.837 224.309 404.05 221.407 414.84 222.187C420.581 222.602 425.067 223.987 435.884 228.683C436.905 229.126 436.768 228.363 435.384 225.889C432.307 220.391 422.45 211.058 417.272 208.74C411.173 206.01 397.941 205.393 389.761 207.457ZM233.634 229.45C236.394 230.27 240.598 232.35 242.977 234.073L247.302 237.207L242.089 239.684C238.464 241.407 236.077 243.425 234.25 246.311C228.128 255.978 232.943 272.405 244.761 282.172L248.043 284.885L240.756 290.675C236.749 293.86 228.727 299.946 222.93 304.199C214.586 310.322 211.932 312.878 210.185 316.473C207.649 321.693 207.276 329.336 209.319 334.242C210.288 336.57 210.495 340.194 210.069 347.34L209.479 357.22L201.862 349.24C188.831 335.588 173.854 312.645 171.629 302.923C171.114 300.675 171.7 300.001 176.763 297.013C189.682 289.389 204.365 275.123 212.98 261.825C216.134 256.955 216.792 254.874 217.82 246.505C219.21 235.197 220.996 230.287 224.185 229.008C227.36 227.733 227.944 227.76 233.634 229.45ZM402.456 247.922C403.441 249.517 400.954 261.472 398.952 264.764C397.24 267.579 387.628 274.96 385.674 274.96C385.217 274.96 385.757 273.677 386.873 272.108C389.942 267.799 391.082 261.233 389.956 254.356C389.425 251.113 388.988 248.38 388.985 248.283C388.943 247.012 401.682 246.671 402.456 247.922ZM249.168 249.482C249.455 249.769 249.212 251.794 248.628 253.982C247.227 259.229 249.047 268.05 252.451 272.512C255.546 276.57 255.571 276.962 252.729 276.953C243.239 276.926 234.074 257.575 240.107 250.305C241.175 249.019 248.078 248.392 249.168 249.482ZM362.131 256.516C361.469 264.836 362.746 269.414 367.112 274.374C370.964 278.749 371.042 278.967 368.814 279.111C358.54 279.774 352.93 276.051 350.918 267.233C349.162 259.54 353.903 251.976 360.486 251.964C362.256 251.96 362.45 252.5 362.131 256.516ZM243.716 323.987C250.074 325.019 255.569 326.703 254.867 327.405C254.653 327.62 252.228 327.369 249.478 326.85C246.729 326.33 239.816 325.877 234.116 325.845C228.416 325.812 224.141 325.419 224.616 324.97C226.776 322.928 234.683 322.521 243.716 323.987ZM228.857 351.159C236.182 355.327 249.298 368.067 248.82 370.55C248.251 373.501 242.084 375.335 237.174 374.012C231.218 372.409 227.405 368.715 224.961 362.182C222.231 354.887 220.904 347.96 222.236 347.96C222.786 347.96 225.765 349.4 228.857 351.159ZM510.76 424.973C517.889 429.733 530.734 442.26 532.212 445.894C534.941 452.6 532.252 479.781 526.873 499.86C523.77 511.44 517.657 526.398 515.887 526.739C515.038 526.903 510.775 524.28 506.415 520.91C502.055 517.541 497.876 514.442 497.129 514.024C495.999 513.392 496.208 509.248 498.373 489.362C501.554 460.146 502.842 444.641 503.203 431.219C503.355 425.586 503.765 420.973 504.115 420.969C504.465 420.964 507.455 422.766 510.76 424.973ZM376.979 489.921C376.979 508.68 376.668 515.134 375.729 515.899C375.042 516.459 371.075 519.596 366.914 522.871C358.651 529.374 354.602 533.684 349.218 541.71C347.281 544.598 345.113 546.96 344.401 546.96C342.618 546.96 312.834 538.933 310.979 537.952C309.694 537.273 309.52 533.5 309.762 511.625L310.044 486.091L318.486 486.06C332.551 486.007 346.399 481.508 364.979 470.953C370.754 467.672 375.816 464.981 376.229 464.974C376.642 464.966 376.979 476.192 376.979 489.921ZM445.479 509.442C458.8 512.002 482.299 520.418 493.979 526.813C502.079 531.247 512.083 538.184 517.307 542.987L522.434 547.701L518.858 553.081C512.998 561.896 494.908 585.798 486.661 595.62C482.432 600.658 474.865 608.645 469.846 613.369C458.337 624.204 455.11 625.348 431.316 627.034C412.369 628.376 359.126 627.746 341.979 625.976C326.961 624.427 307.966 620.39 298.979 616.839C288.869 612.844 273.628 601.631 247.479 578.952C229.437 563.303 219.488 556.16 210.518 552.412C205.891 550.479 206.474 549.638 215.633 545.027C227.75 538.927 243.064 539.076 272.479 545.581C293.813 550.298 305.023 553.55 333.479 563.273C363.972 573.694 375.535 578.07 387.261 583.627C397.548 588.502 399.84 589.219 405.314 589.27C413.817 589.35 419.745 586.415 425.27 579.389C428.449 575.347 430.458 573.774 433.479 572.961C443.875 570.164 451.969 563.603 456.014 554.692C461.169 543.336 455.336 531.044 441.325 523.739C431.985 518.869 425.637 517.66 411.735 518.101L400.09 518.471L402.285 516.116C404.907 513.303 412.516 509.296 417.725 507.986C422.2 506.861 435.74 507.571 445.479 509.442ZM153.259 528.949C154.025 530.043 158.888 535.514 164.066 541.107C169.243 546.7 173.479 551.717 173.479 552.257C173.479 552.797 171.042 554.164 168.063 555.296L162.646 557.354L173.945 559.625C202.157 565.294 210.203 569.592 232.053 590.67C240.552 598.869 248.768 605.678 257.137 611.46L261.479 614.46L257.479 614.719C255.279 614.861 239.304 616.376 221.979 618.086C196.621 620.589 188.042 621.073 177.979 620.567C158.009 619.564 139.517 616.189 129.72 611.761C123.504 608.951 122.575 605.764 123.226 589.46C123.785 575.433 126.298 566.676 133.7 552.96C138.773 543.559 149.875 526.96 151.09 526.96C151.517 526.96 152.493 527.855 153.259 528.949ZM425.257 531.065C435.546 535.11 439.979 540.287 439.979 548.257C439.979 553.068 437.99 556.197 434.162 557.406C432.241 558.012 430.843 557.181 425.971 552.534C415.769 542.803 403.854 538.553 388.412 539.137C379.952 539.457 379.89 539.442 382.163 537.605C385.79 534.675 394.023 530.731 399.479 529.309C406.103 527.582 418.557 528.43 425.257 531.065ZM397.674 550.45C405.576 552.314 413.115 556.941 415.518 561.402C417.287 564.688 417.298 565.067 415.722 568.373C413.387 573.27 408.969 575.349 402.675 574.514C396.958 573.756 392.368 571.592 382.479 564.995C378.629 562.426 373.54 559.488 371.17 558.464L366.861 556.603L370.102 554.032C371.885 552.617 374.724 550.932 376.411 550.286C380.698 548.646 390.337 548.72 397.674 550.45ZM676.198 616.71C674.077 619.873 670.664 625.498 668.612 629.21L664.881 635.96L659.18 635.993C656.044 636.011 650.336 636.43 646.494 636.925C642.653 637.42 639.318 637.633 639.084 637.398C638.85 637.164 639.361 636.182 640.221 635.216C641.08 634.25 644.585 629.185 648.009 623.96C657.236 609.88 655.519 610.96 668.671 610.96H680.054L676.198 616.71ZM696.464 651.21C696.824 655.197 696.975 662.06 696.799 666.46L696.479 674.46L672.229 674.728L647.979 674.996V688.478V701.96H666.479H684.979V716.96V731.96H666.479H647.979V747.388V762.816L653.229 763.392C656.117 763.709 666.987 764.412 677.386 764.954C687.785 765.497 696.408 766.058 696.548 766.2C696.689 766.343 696.956 774.448 697.141 784.211L697.479 801.962L693.979 801.94C692.054 801.927 681.441 800.612 670.394 799.017C659.347 797.422 641.347 795.339 630.394 794.389C619.441 793.438 610.132 792.359 609.708 791.99C609.285 791.621 610.307 788.752 611.981 785.616L615.024 779.913L614.752 719.686L614.479 659.46L611.564 653.708C609.961 650.544 608.986 647.619 609.396 647.208C610.292 646.31 654.604 644.331 678.644 644.114L695.808 643.96L696.464 651.21ZM98.2361 646.926C116.779 647.683 118.329 647.897 123.466 650.41C126.476 651.882 130.294 654.732 131.951 656.742C137.337 663.276 137.934 666.926 138.12 694.46C138.265 716.015 138.054 720.011 136.588 723.46C133.79 730.039 129.95 734.836 124.822 738.159C122.158 739.885 119.979 741.564 119.979 741.89C119.979 742.216 122.058 747.203 124.598 752.971C132.386 770.655 139.154 787.324 139.678 790.109L140.176 792.759L130.328 793.458C124.911 793.842 117.387 794.527 113.607 794.98C109.827 795.433 106.227 795.598 105.607 795.347C104.987 795.096 102.32 788.279 99.6821 780.198C97.0431 772.117 93.242 760.882 91.235 755.232L87.5851 744.96H81.282H74.979L75.0051 764.71L75.03 784.46L78.5051 789.914C84.1901 798.837 85.167 798.291 58.91 800.881C46.223 802.132 35.6441 802.958 35.4021 802.717C35.1601 802.475 36.5411 798.86 38.4711 794.684L41.979 787.091V722.872V658.652L38.479 652.394C36.554 648.951 34.979 645.841 34.979 645.481C34.979 644.822 61.5781 645.43 98.2361 646.926ZM591.967 658.71C591.956 669.507 591.745 670.825 589.37 674.96C587.949 677.435 585.41 681.935 583.729 684.96C570.721 708.366 565.113 718.149 553.846 737.092C546.769 748.989 540.979 759.268 540.979 759.934C540.979 760.853 545.615 761.049 560.229 760.75C578.279 760.38 579.907 760.187 586.348 757.658C590.126 756.174 593.726 754.96 594.348 754.959C595.159 754.958 595.384 759.973 595.144 772.709C594.959 782.472 594.625 790.644 594.402 790.869C594.178 791.093 584.879 790.537 573.737 789.631C562.595 788.726 545.379 787.52 535.479 786.952C525.579 786.384 513.767 785.663 509.229 785.35L500.979 784.78V773.328V761.876L526.479 720.431C540.504 697.636 551.979 678.482 551.979 677.866C551.979 677.069 547.584 676.876 536.729 677.197C519.885 677.696 516.453 678.547 507.596 684.426C504.668 686.37 501.981 687.96 501.625 687.96C501.27 687.96 500.979 679.458 500.979 669.066V650.173L517.229 649.498C526.167 649.127 545.179 648.474 559.479 648.047C573.779 647.62 586.941 647.201 588.729 647.116L591.979 646.96L591.967 658.71ZM217.889 648.961L227.479 648.962L233.183 674.211C236.32 688.098 241.403 710.485 244.477 723.96C247.552 737.435 250.985 753.184 252.107 758.957C253.3 765.1 255.567 772.527 257.571 776.865C259.454 780.942 260.83 784.443 260.627 784.645C259.975 785.297 219.851 787.165 219.257 786.572C218.942 786.257 219.659 783.033 220.849 779.408C222.762 773.58 222.887 772.094 221.928 766.587C221.331 763.161 220.484 759.777 220.045 759.066C219.416 758.049 215.937 757.928 203.656 758.499L188.066 759.224L187.101 764.342C186.57 767.157 185.905 770.828 185.624 772.499C185.301 774.425 185.997 777.711 187.525 781.471C188.851 784.733 189.608 787.707 189.207 788.078C188.807 788.449 180.829 789.266 171.479 789.893C162.129 790.52 152.944 791.306 151.068 791.638C148.021 792.178 147.734 792.041 148.383 790.352C152.431 779.806 161.931 739.582 174.55 679.56C178.019 663.058 178.212 661.299 177.02 657.06C176.309 654.53 175.493 651.374 175.206 650.047L174.684 647.634L191.491 648.297C200.735 648.662 212.614 648.96 217.889 648.961ZM339.393 651.526C349.825 652.147 357.089 655.043 361.869 660.487C366.822 666.129 367.452 670.068 367.466 695.46C367.479 718.178 367.447 718.528 364.868 724.027C361.94 730.269 356.662 735.892 351.158 738.63C348.025 740.189 344.402 740.508 326.729 740.782L305.979 741.105L305.951 755.782C305.923 770.451 305.924 770.464 309.188 776.64C310.984 780.038 312.234 783.015 311.966 783.255C311.698 783.494 301.633 784 289.598 784.379C264.621 785.165 266.798 786.301 271.554 774.96L274.279 768.46L273.598 715.669L272.917 662.878L270.448 657.295C269.09 654.224 267.979 651.291 267.979 650.778C267.979 649.859 320.666 650.411 339.393 651.526ZM465.532 653.63C471.278 656.706 475.818 661.589 478.856 667.96L481.479 673.46L481.77 715.812C482.097 763.356 481.891 765.197 475.408 772.771C467.778 781.686 460.93 783.249 431.479 782.797C410.071 782.469 409.326 782.388 403.783 779.79C395.965 776.125 389.767 769.681 387.033 762.376C384.864 756.577 384.833 755.792 385.216 715.469C385.567 678.527 385.79 673.966 387.466 669.476C390.137 662.322 397.098 655.879 405.113 653.142C411.073 651.107 413.073 650.985 436.479 651.214C459.963 651.445 461.725 651.592 465.532 653.63ZM74.729 674.532C73.667 675.61 73.8231 715.165 74.8961 716.86C75.6101 717.988 77.786 718.125 86.131 717.563C98.637 716.722 103.612 715.514 104.962 712.992C106.176 710.723 106.243 689.276 105.055 683.13C104.032 677.838 103.277 677.031 98.3501 675.963C92.4821 674.692 75.58 673.668 74.729 674.532ZM306.559 677.713C306.24 678.032 305.979 686.768 305.979 697.127V715.96H317.756C334.74 715.96 333.979 716.875 333.979 696.438C333.979 681.822 333.788 679.932 332.229 679.129C330.22 678.094 307.436 676.837 306.559 677.713ZM419.634 679.789C418.159 681.418 417.979 685.489 417.979 717.134C417.979 759.453 416.867 756.144 431.306 756.776C442.22 757.253 447.381 755.663 449.034 751.314C449.706 749.549 449.971 736.667 449.778 715.176L449.479 681.781L447.118 679.871C445.094 678.232 443.084 677.96 433.023 677.96C422.925 677.96 421.058 678.215 419.634 679.789ZM202.45 690.21C202.063 692.547 199.998 702.548 197.863 712.433C195.727 722.318 193.979 730.98 193.979 731.683C193.979 732.628 196.383 732.956 203.229 732.945C208.316 732.936 213.027 732.581 213.696 732.156C214.62 731.569 214.107 727.908 211.56 716.922C209.717 708.968 207.416 698.748 206.449 694.21C205.481 689.672 204.344 685.96 203.922 685.96C203.5 685.96 202.838 687.873 202.45 690.21ZM349.321 854.46L349.365 881.46L341.672 881.752L333.979 882.044V854.46V826.876L341.629 827.168L349.278 827.46L349.321 854.46ZM393.979 833.46V839.96H382.979H371.979V843.421V846.882L380.729 847.171L389.479 847.46L389.777 853.71L390.074 859.96H381.559H373.045L372.762 871.21L372.479 882.46L367.482 882.775C364.733 882.948 360.954 882.803 359.084 882.452L355.683 881.814L356.314 854.637C356.661 839.69 356.952 827.348 356.962 827.21C356.971 827.072 365.304 826.96 375.479 826.96H393.979V833.46Z" fill="#75F348"/>
</svg>
